<?xml version="1.0" encoding="UTF-8" standalone="no"?>
<!DOCTYPE svg PUBLIC "-//W3C//DTD SVG 1.1//EN"
"http://www.w3.org/Graphics/SVG/1.1/DTD/svg11.dtd">
<svg viewBox="0 0 935 1210" version="1.1" xmlns="http://www.w3.org/2000/svg" xmlns:xlink="http://www.w3.org/1999/xlink">
<defs>
<style type="text/css"><![CDATA[
.g0_38{
fill: none;
stroke: #000000;
stroke-width: 1.069;
stroke-linecap: butt;
stroke-linejoin: miter;
}
.g1_38{
fill: none;
stroke: #000000;
stroke-width: 0.763;
stroke-linecap: butt;
stroke-linejoin: round;
}
.g2_38{
fill: none;
stroke: #4A7EBB;
stroke-width: 1.145;
stroke-linecap: butt;
stroke-linejoin: round;
}
]]></style>
</defs>
<path d="M110.2,394H210.5" class="g0_38"/>
<path d="M101.4,566.1H830M101.4,633.8H830M101.7,565.7v68.5m75.7,-68.5v68.5m84.8,-68.5v68.5M339,565.7v68.5m50.4,-68.5v68.5M473,565.7v68.5m53.9,-68.5v68.5m67.6,-68.5v68.5m81.2,-68.5v68.5m93.1,-68.5v68.5m60.8,-68.5v68.5M101.4,664.8H830M101.4,732.3H830M101.7,664.4v68.3m75.7,-68.3v68.3m84.8,-68.3v68.3M339,664.4v68.3m50.4,-68.3v68.3M473,664.4v68.3m53.9,-68.3v68.3m67.6,-68.3v68.3m81.2,-68.3v68.3m93.1,-68.3v68.3m60.8,-68.3v68.3m-728.2,62H830M101.4,862.2H830M101.7,794.3v68.3m75.7,-68.3v68.3m84.8,-68.3v68.3M339,794.3v68.3m50.4,-68.3v68.3M473,794.3v68.3m53.9,-68.3v68.3m67.6,-68.3v68.3m81.2,-68.3v68.3m93.1,-68.3v68.3m60.8,-68.3v68.3" class="g1_38"/>
<path d="M107.8,98.7h715" class="g2_38"/>
</svg>