<?xml version="1.0" encoding="UTF-8" standalone="no"?>
<!DOCTYPE svg PUBLIC "-//W3C//DTD SVG 1.1//EN"
"http://www.w3.org/Graphics/SVG/1.1/DTD/svg11.dtd">
<svg viewBox="0 0 935 1210" version="1.1" xmlns="http://www.w3.org/2000/svg" xmlns:xlink="http://www.w3.org/1999/xlink">
<defs>
<clipPath id="c0_4"><path d="M114.6,1208.5v-59.6H838.8v59.6Z"/></clipPath>
<style type="text/css"><![CDATA[
.g0_4{
}
.g1_4{
fill: none;
stroke: #000000;
stroke-width: 4.583;
stroke-linecap: butt;
stroke-linejoin: round;
}
.g2_4{
fill: #594DB3;
}
.g3_4{
fill: none;
stroke: #002060;
stroke-width: 4.583;
stroke-linecap: butt;
stroke-linejoin: round;
}
.g4_4{
fill: none;
stroke: #0000FF;
stroke-width: 1.222;
stroke-linecap: butt;
stroke-linejoin: miter;
}
.g5_4{
fill: none;
stroke: #0000FF;
stroke-width: 1.069;
stroke-linecap: butt;
stroke-linejoin: miter;
}
.g6_4{
fill: none;
stroke: #4A7EBB;
stroke-width: 1.145;
stroke-linecap: butt;
stroke-linejoin: round;
}
]]></style>
</defs>
<g clip-path="url(#c0_4)" opacity="0.4">
<path fill-rule="evenodd" d="M118.2,1160.8c0,-1.6,.4,-3.1,1.2,-4.5c.8,-1.4,1.9,-2.4,3.3,-3.3c1.4,-.7,2.9,-1.1,4.4,-1.1H826.7c1.6,0,3.1,.4,4.5,1.2c1.4,.8,2.4,1.9,3.3,3.3c.7,1.4,1.1,2.9,1.1,4.4l.1,35.8c0,1.6,-.4,3.2,-1.2,4.5c-.8,1.4,-1.9,2.5,-3.3,3.3c-1.4,.8,-2.9,1.2,-4.4,1.2H127.1c-1.6,0,-3.1,-.3,-4.5,-1.2c-1.4,-.7,-2.4,-1.9,-3.3,-3.3c-.7,-1.3,-1.1,-2.9,-1.1,-4.4v-35.9Z" class="g0_4"/>
<path d="M118.2,1160.8v0c0,-1.6,.4,-3.1,1.2,-4.5c.8,-1.4,1.9,-2.4,3.3,-3.3c1.4,-.7,2.9,-1.1,4.4,-1.1H826.7c1.6,0,3.1,.4,4.5,1.2c1.4,.8,2.4,1.9,3.3,3.3c.7,1.4,1.1,2.9,1.1,4.4l.1,35.8c0,1.6,-.4,3.2,-1.2,4.5c-.8,1.4,-1.9,2.5,-3.3,3.3c-1.4,.8,-2.9,1.2,-4.4,1.2H127.1c-1.6,0,-3.1,-.3,-4.5,-1.2c-1.4,-.7,-2.4,-1.9,-3.3,-3.3c-.7,-1.3,-1.1,-2.9,-1.1,-4.4v-35.9Z" class="g1_4"/>
</g>
<path fill-rule="evenodd" d="M112.8,1155.5c0,-1.6,.4,-3.2,1.2,-4.5c.8,-1.4,2,-2.5,3.3,-3.3c1.4,-.8,2.9,-1.2,4.5,-1.2H821.3c1.6,0,3.2,.4,4.5,1.2c1.4,.8,2.5,2,3.3,3.3c.8,1.4,1.2,2.9,1.2,4.5v35.8c0,1.6,-.3,3.1,-1.2,4.5c-.7,1.4,-1.9,2.4,-3.3,3.3c-1.3,.7,-2.9,1.1,-4.4,1.1l-699.6,.1c-1.6,0,-3.2,-.4,-4.5,-1.2c-1.4,-.8,-2.5,-1.9,-3.3,-3.3c-.8,-1.4,-1.2,-2.9,-1.2,-4.4v-35.9Z" class="g2_4"/>
<path d="M112.8,1155.5v0c0,-1.6,.4,-3.2,1.2,-4.5c.8,-1.4,2,-2.5,3.3,-3.3c1.4,-.8,2.9,-1.2,4.5,-1.2H821.3c1.6,0,3.2,.4,4.5,1.2c1.4,.8,2.5,2,3.3,3.3c.8,1.4,1.2,2.9,1.2,4.5v35.8c0,1.6,-.3,3.1,-1.2,4.5c-.7,1.4,-1.9,2.4,-3.3,3.3c-1.3,.7,-2.9,1.1,-4.4,1.1l-699.6,.1c-1.6,0,-3.2,-.4,-4.5,-1.2c-1.4,-.8,-2.5,-1.9,-3.3,-3.3c-.8,-1.4,-1.2,-2.9,-1.2,-4.4v-35.9Z" class="g3_4"/>
<path d="M170.2,403.9H225" class="g4_4"/>
<path d="M440.2,625.8H612.6M440.2,650.4H600.6M440.2,675H604.8M440.2,699.6H654.3" class="g5_4"/>
<path d="M82.6,1124.8h770m-770.5,-8l770,.1" class="g6_4"/>
</svg>