<?xml version="1.0" encoding="UTF-8" standalone="no"?>
<!DOCTYPE svg PUBLIC "-//W3C//DTD SVG 1.1//EN"
"http://www.w3.org/Graphics/SVG/1.1/DTD/svg11.dtd">
<svg viewBox="0 0 935 1210" version="1.1" xmlns="http://www.w3.org/2000/svg" xmlns:xlink="http://www.w3.org/1999/xlink">
<defs>
<style type="text/css"><![CDATA[
.g0_39{
fill: none;
stroke: #000000;
stroke-width: 1.069;
stroke-linecap: butt;
stroke-linejoin: miter;
}
.g1_39{
fill: none;
stroke: #000000;
stroke-width: 0.763;
stroke-linecap: butt;
stroke-linejoin: round;
}
]]></style>
</defs>
<path d="M110.2,331.8H271.6" class="g0_39"/>
<path d="M101.4,500.9H817.1M101.4,540.3H817.1M101.7,500.5v40.2m82.5,-40.2v40.2m79,-40.2v40.2m78.9,-40.2v40.2m55.1,-40.2v40.2m59.5,-40.2v40.2m73.4,-40.2v40.2M621,500.5v40.2m87.3,-40.2v40.2M816.7,500.5v40.2M101.4,562.1H817.1M101.4,601.6H817.1M101.7,561.8v40.1m82.7,-40.1v40.1m78.8,-40.1v40.1m78.9,-40.1v40.1m55.1,-40.1v40.1m59.6,-40.1v40.1m73.3,-40.1v40.1M621,561.8v40.1m87.3,-40.1v40.1M816.7,561.8v40.1M101.4,686.7H817.1M101.4,726.1H817.1M101.7,686.3v40.2m82.7,-40.2v40.2m78.8,-40.2v40.2m78.9,-40.2v40.2m55.1,-40.2v40.2m59.6,-40.2v40.2m73.3,-40.2v40.2M621,686.3v40.2m87.3,-40.2v40.2M816.7,686.3v40.2" class="g1_39"/>
</svg>