<?xml version="1.0" encoding="UTF-8" standalone="no"?>
<!DOCTYPE svg PUBLIC "-//W3C//DTD SVG 1.1//EN"
"http://www.w3.org/Graphics/SVG/1.1/DTD/svg11.dtd">
<svg viewBox="0 0 935 1210" version="1.1" xmlns="http://www.w3.org/2000/svg" xmlns:xlink="http://www.w3.org/1999/xlink">
<defs>
<clipPath id="c0_22"><path d="M111.5,424.7V363.6H834.2v61.1Z"/></clipPath>
<style type="text/css"><![CDATA[
.g0_22{
}
.g1_22{
fill: none;
stroke: #000000;
stroke-width: 4.583;
stroke-linecap: butt;
stroke-linejoin: round;
}
.g2_22{
fill: #594DB3;
}
.g3_22{
fill: none;
stroke: #002060;
stroke-width: 4.583;
stroke-linecap: butt;
stroke-linejoin: round;
}
]]></style>
</defs>
<g clip-path="url(#c0_22)" opacity="0.4">
<path fill-rule="evenodd" d="M114.1,376.4c0,-1.6,.4,-3.2,1.2,-4.5c.8,-1.4,2,-2.5,3.3,-3.3c1.4,-.8,2.9,-1.2,4.5,-1.2H822.6c1.6,0,3.2,.4,4.5,1.3c1.4,.7,2.5,1.9,3.3,3.2c.8,1.4,1.2,2.9,1.2,4.5v35.8c0,1.6,-.3,3.1,-1.2,4.5c-.7,1.4,-1.9,2.4,-3.3,3.3c-1.3,.8,-2.9,1.1,-4.4,1.1l-699.6,.1c-1.6,0,-3.2,-.4,-4.5,-1.2c-1.4,-.8,-2.5,-1.9,-3.3,-3.3c-.8,-1.4,-1.2,-2.9,-1.2,-4.4V376.4Z" class="g0_22"/>
<path d="M114.1,376.4v0c0,-1.6,.4,-3.2,1.2,-4.5c.8,-1.4,2,-2.5,3.3,-3.3c1.4,-.8,2.9,-1.2,4.5,-1.2H822.6c1.6,0,3.2,.4,4.5,1.3c1.4,.7,2.5,1.9,3.3,3.2c.8,1.4,1.2,2.9,1.2,4.5v35.8c0,1.6,-.3,3.1,-1.2,4.5c-.7,1.4,-1.9,2.4,-3.3,3.3c-1.3,.8,-2.9,1.1,-4.4,1.1l-699.6,.1c-1.6,0,-3.2,-.4,-4.5,-1.2c-1.4,-.8,-2.5,-1.9,-3.3,-3.3c-.8,-1.4,-1.2,-2.9,-1.2,-4.4V376.4Z" class="g1_22"/>
</g>
<path fill-rule="evenodd" d="M108.8,371c0,-1.6,.4,-3.1,1.2,-4.5c.8,-1.4,1.9,-2.4,3.3,-3.3c1.4,-.7,2.9,-1.1,4.4,-1.1H817.3c1.6,0,3.1,.4,4.5,1.2c1.4,.8,2.4,1.9,3.3,3.3c.7,1.4,1.1,2.9,1.1,4.4l.1,35.8c0,1.7,-.4,3.2,-1.2,4.6c-.8,1.3,-1.9,2.4,-3.3,3.2c-1.4,.8,-2.9,1.2,-4.4,1.2l-699.7,.1c-1.6,0,-3.1,-.4,-4.5,-1.3c-1.4,-.7,-2.4,-1.9,-3.3,-3.2c-.7,-1.4,-1.1,-2.9,-1.1,-4.5V371Z" class="g2_22"/>
<path d="M108.8,371v0c0,-1.6,.4,-3.1,1.2,-4.5c.8,-1.4,1.9,-2.4,3.3,-3.3c1.4,-.7,2.9,-1.1,4.4,-1.1H817.3c1.6,0,3.1,.4,4.5,1.2c1.4,.8,2.4,1.9,3.3,3.3c.7,1.4,1.1,2.9,1.1,4.4l.1,35.8c0,1.7,-.4,3.2,-1.2,4.6c-.8,1.3,-1.9,2.4,-3.3,3.2c-1.4,.8,-2.9,1.2,-4.4,1.2l-699.7,.1c-1.6,0,-3.1,-.4,-4.5,-1.3c-1.4,-.7,-2.4,-1.9,-3.3,-3.2c-.7,-1.4,-1.1,-2.9,-1.1,-4.5V371Z" class="g3_22"/>
</svg>