<?xml version="1.0" encoding="UTF-8" standalone="no"?>
<!DOCTYPE svg PUBLIC "-//W3C//DTD SVG 1.1//EN"
"http://www.w3.org/Graphics/SVG/1.1/DTD/svg11.dtd">
<svg viewBox="0 0 935 1210" version="1.1" xmlns="http://www.w3.org/2000/svg" xmlns:xlink="http://www.w3.org/1999/xlink">
<defs>
<clipPath id="c0_3"><path d="M110,174.2V114.6H834.2v59.6Z"/></clipPath>
<style type="text/css"><![CDATA[
.g0_3{
}
.g1_3{
fill: none;
stroke: #000000;
stroke-width: 4.583;
stroke-linecap: butt;
stroke-linejoin: round;
}
.g2_3{
fill: #594DB3;
}
.g3_3{
fill: none;
stroke: #002060;
stroke-width: 4.583;
stroke-linecap: butt;
stroke-linejoin: round;
}
.g4_3{
fill: none;
stroke: #4A7EBB;
stroke-width: 1.145;
stroke-linecap: butt;
stroke-linejoin: round;
}
]]></style>
</defs>
<g clip-path="url(#c0_3)" opacity="0.4">
<path fill-rule="evenodd" d="M112.8,126.5c0,-1.6,.4,-3.1,1.2,-4.5c.8,-1.4,2,-2.5,3.3,-3.3c1.4,-.8,2.9,-1.1,4.5,-1.1H821.3c1.6,0,3.2,.3,4.5,1.2c1.4,.7,2.5,1.9,3.3,3.3c.8,1.3,1.2,2.9,1.2,4.4v35.8c0,1.6,-.3,3.2,-1.2,4.5c-.7,1.4,-1.9,2.5,-3.3,3.3c-1.3,.8,-2.9,1.2,-4.4,1.2H121.8c-1.6,0,-3.2,-.3,-4.5,-1.2c-1.4,-.7,-2.5,-1.9,-3.3,-3.3c-.8,-1.3,-1.2,-2.9,-1.2,-4.4V126.5Z" class="g0_3"/>
<path d="M112.8,126.5v0c0,-1.6,.4,-3.1,1.2,-4.5c.8,-1.4,2,-2.5,3.3,-3.3c1.4,-.8,2.9,-1.1,4.5,-1.1H821.3c1.6,0,3.2,.3,4.5,1.2c1.4,.7,2.5,1.9,3.3,3.3c.8,1.3,1.2,2.9,1.2,4.4v35.8c0,1.6,-.3,3.2,-1.2,4.5c-.7,1.4,-1.9,2.5,-3.3,3.3c-1.3,.8,-2.9,1.2,-4.4,1.2H121.8c-1.6,0,-3.2,-.3,-4.5,-1.2c-1.4,-.7,-2.5,-1.9,-3.3,-3.3c-.8,-1.3,-1.2,-2.9,-1.2,-4.4V126.5Z" class="g1_3"/>
</g>
<path fill-rule="evenodd" d="M107.5,121.2c0,-1.7,.4,-3.2,1.2,-4.6c.8,-1.3,1.9,-2.4,3.3,-3.2c1.4,-.8,2.9,-1.2,4.4,-1.2H816c1.6,0,3.1,.4,4.5,1.2c1.4,.8,2.4,1.9,3.3,3.3c.7,1.4,1.1,2.9,1.1,4.5L825,157c0,1.6,-.4,3.1,-1.2,4.5c-.8,1.4,-1.9,2.4,-3.3,3.3c-1.4,.7,-2.9,1.1,-4.4,1.1L116.4,166c-1.6,0,-3.1,-.4,-4.5,-1.2c-1.4,-.8,-2.4,-1.9,-3.3,-3.3c-.7,-1.4,-1.1,-2.9,-1.1,-4.4V121.2Z" class="g2_3"/>
<path d="M107.5,121.2v0c0,-1.7,.4,-3.2,1.2,-4.6c.8,-1.3,1.9,-2.4,3.3,-3.2c1.4,-.8,2.9,-1.2,4.4,-1.2H816c1.6,0,3.1,.4,4.5,1.2c1.4,.8,2.4,1.9,3.3,3.3c.7,1.4,1.1,2.9,1.1,4.5L825,157c0,1.6,-.4,3.1,-1.2,4.5c-.8,1.4,-1.9,2.4,-3.3,3.3c-1.4,.7,-2.9,1.1,-4.4,1.1L116.4,166c-1.6,0,-3.1,-.4,-4.5,-1.2c-1.4,-.8,-2.4,-1.9,-3.3,-3.3c-.7,-1.4,-1.1,-2.9,-1.1,-4.4V121.2Z" class="g3_3"/>
<path d="M109.2,76H826.6" class="g4_3"/>
</svg>