<?xml version="1.0" encoding="UTF-8" standalone="no"?>
<!DOCTYPE svg PUBLIC "-//W3C//DTD SVG 1.1//EN"
"http://www.w3.org/Graphics/SVG/1.1/DTD/svg11.dtd">
<svg viewBox="0 0 935 1210" version="1.1" xmlns="http://www.w3.org/2000/svg" xmlns:xlink="http://www.w3.org/1999/xlink">
<defs>
<clipPath id="c0_35"><path d="M145.1,895.3V227.6h657V895.3Z"/></clipPath>
<clipPath id="c1_35"><path d="M110,174.2V114.6H834.2v59.6Z"/></clipPath>
<style type="text/css"><![CDATA[
.g0_35{
}
.g1_35{
fill: none;
stroke: #000000;
stroke-width: 9.166;
stroke-linecap: butt;
stroke-linejoin: round;
}
.g2_35{
fill: #DBEEF4;
}
.g3_35{
fill: none;
stroke: #000000;
stroke-width: 4.583;
stroke-linecap: butt;
stroke-linejoin: round;
}
.g4_35{
fill: none;
stroke: #1F497D;
stroke-width: 9.166;
stroke-linecap: butt;
stroke-linejoin: round;
}
.g5_35{
fill: #594DB3;
}
.g6_35{
fill: none;
stroke: #002060;
stroke-width: 4.583;
stroke-linecap: butt;
stroke-linejoin: round;
}
]]></style>
</defs>
<g clip-path="url(#c0_35)" opacity="0.39">
<path fill-rule="evenodd" d="M150.9,340.2c0,-19,5,-37.5,14.5,-53.9c9.5,-16.3,23.1,-29.9,39.4,-39.4c16.3,-9.5,35,-14.4,53.9,-14.4H689.5c18.9,0,37.5,4.9,53.8,14.4c16.4,9.5,30,23.1,39.5,39.4c9.4,16.4,14.4,35,14.4,53.9l.1,442c0,19,-5,37.5,-14.5,53.9c-9.4,16.3,-23,29.9,-39.4,39.4c-16.3,9.5,-35,14.4,-53.8,14.4L258.7,890c-19,0,-37.6,-5,-53.9,-14.4c-16.3,-9.5,-29.9,-23.1,-39.4,-39.4c-9.5,-16.4,-14.5,-35,-14.5,-53.9V340.2Z" class="g0_35"/>
<path d="M150.9,340.2v0c0,-19,5,-37.5,14.5,-53.9c9.5,-16.3,23.1,-29.9,39.4,-39.4c16.3,-9.5,35,-14.4,53.9,-14.4H689.5c18.9,0,37.5,4.9,53.8,14.4c16.4,9.5,30,23.1,39.5,39.4c9.4,16.4,14.4,35,14.4,53.9l.1,442c0,19,-5,37.5,-14.5,53.9c-9.4,16.3,-23,29.9,-39.4,39.4c-16.3,9.5,-35,14.4,-53.8,14.4L258.7,890c-19,0,-37.6,-5,-53.9,-14.4c-16.3,-9.5,-29.9,-23.1,-39.4,-39.4c-9.5,-16.4,-14.5,-35,-14.5,-53.9V340.2Z" class="g1_35"/>
</g>
<path fill-rule="evenodd" d="M150.9,337.7c0,-18.9,5,-37.5,14.5,-53.8c9.5,-16.4,23.1,-30,39.4,-39.5C221.1,235,239.8,230,258.7,230H689.5c18.9,0,37.5,5,53.8,14.4c16.4,9.5,30,23.1,39.5,39.5c9.4,16.3,14.4,34.9,14.4,53.8l.1,442.1c0,18.9,-5,37.5,-14.5,53.8c-9.4,16.4,-23,30,-39.4,39.4c-16.3,9.5,-35,14.5,-53.8,14.5l-430.9,.1c-19,0,-37.6,-5,-53.9,-14.5c-16.3,-9.4,-29.9,-23,-39.4,-39.4c-9.5,-16.3,-14.5,-35,-14.5,-53.8V337.7Z" class="g2_35"/>
<path d="M150.9,337.7v0c0,-18.9,5,-37.5,14.5,-53.8c9.5,-16.4,23.1,-30,39.4,-39.5C221.1,235,239.8,230,258.7,230H689.5c18.9,0,37.5,5,53.8,14.4c16.4,9.5,30,23.1,39.5,39.5c9.4,16.3,14.4,34.9,14.4,53.8l.1,442.1c0,18.9,-5,37.5,-14.5,53.8c-9.4,16.4,-23,30,-39.4,39.4c-16.3,9.5,-35,14.5,-53.8,14.5l-430.9,.1c-19,0,-37.6,-5,-53.9,-14.5c-16.3,-9.4,-29.9,-23,-39.4,-39.4c-9.5,-16.3,-14.5,-35,-14.5,-53.8V337.7Z" class="g4_35"/>
<g clip-path="url(#c1_35)" opacity="0.4">
<path fill-rule="evenodd" d="M113.2,126.4c0,-1.6,.4,-3.1,1.2,-4.5c.8,-1.4,1.9,-2.4,3.3,-3.3c1.4,-.7,2.9,-1.1,4.4,-1.1H821.7c1.6,0,3.1,.4,4.5,1.2c1.4,.8,2.5,1.9,3.3,3.3c.8,1.4,1.2,2.9,1.2,4.4v35.9c0,1.6,-.4,3.1,-1.2,4.5c-.8,1.3,-1.9,2.4,-3.3,3.2c-1.4,.8,-2.9,1.2,-4.4,1.2l-699.7,.1c-1.6,0,-3.1,-.4,-4.5,-1.3c-1.3,-.7,-2.4,-1.9,-3.2,-3.2c-.8,-1.4,-1.2,-2.9,-1.2,-4.5V126.4Z" class="g0_35"/>
<path d="M113.2,126.4v0c0,-1.6,.4,-3.1,1.2,-4.5c.8,-1.4,1.9,-2.4,3.3,-3.3c1.4,-.7,2.9,-1.1,4.4,-1.1H821.7c1.6,0,3.1,.4,4.5,1.2c1.4,.8,2.5,1.9,3.3,3.3c.8,1.4,1.2,2.9,1.2,4.4v35.9c0,1.6,-.4,3.1,-1.2,4.5c-.8,1.3,-1.9,2.4,-3.3,3.2c-1.4,.8,-2.9,1.2,-4.4,1.2l-699.7,.1c-1.6,0,-3.1,-.4,-4.5,-1.3c-1.3,-.7,-2.4,-1.9,-3.2,-3.2c-.8,-1.4,-1.2,-2.9,-1.2,-4.5V126.4Z" class="g3_35"/>
</g>
<path fill-rule="evenodd" d="M107.9,121.1c0,-1.6,.3,-3.2,1.2,-4.5c.7,-1.4,1.9,-2.5,3.3,-3.3c1.3,-.8,2.9,-1.2,4.4,-1.2H816.4c1.6,0,3.1,.4,4.5,1.3c1.4,.7,2.4,1.9,3.3,3.2c.7,1.4,1.1,2.9,1.1,4.5l.1,35.8c0,1.6,-.4,3.1,-1.2,4.5c-.8,1.4,-1.9,2.5,-3.3,3.3c-1.4,.8,-2.9,1.1,-4.5,1.1l-699.6,.1c-1.6,0,-3.1,-.4,-4.5,-1.2c-1.4,-.8,-2.5,-1.9,-3.3,-3.3c-.8,-1.4,-1.1,-2.9,-1.1,-4.4V121.1Z" class="g5_35"/>
<path d="M107.9,121.1v0c0,-1.6,.3,-3.2,1.2,-4.5c.7,-1.4,1.9,-2.5,3.3,-3.3c1.3,-.8,2.9,-1.2,4.4,-1.2H816.4c1.6,0,3.1,.4,4.5,1.3c1.4,.7,2.4,1.9,3.3,3.2c.7,1.4,1.1,2.9,1.1,4.5l.1,35.8c0,1.6,-.4,3.1,-1.2,4.5c-.8,1.4,-1.9,2.5,-3.3,3.3c-1.4,.8,-2.9,1.1,-4.5,1.1l-699.6,.1c-1.6,0,-3.1,-.4,-4.5,-1.2c-1.4,-.8,-2.5,-1.9,-3.3,-3.3c-.8,-1.4,-1.1,-2.9,-1.1,-4.4V121.1Z" class="g6_35"/>
</svg>