<?xml version="1.0" encoding="UTF-8" standalone="no"?>
<!DOCTYPE svg PUBLIC "-//W3C//DTD SVG 1.1//EN"
"http://www.w3.org/Graphics/SVG/1.1/DTD/svg11.dtd">
<svg viewBox="0 0 935 1210" version="1.1" xmlns="http://www.w3.org/2000/svg" xmlns:xlink="http://www.w3.org/1999/xlink">
<defs>
<clipPath id="c0_15"><path d="M108.5,499.6V440H832.6v59.6Z"/></clipPath>
<style type="text/css"><![CDATA[
.g0_15{
}
.g1_15{
fill: none;
stroke: #000000;
stroke-width: 4.583;
stroke-linecap: butt;
stroke-linejoin: round;
}
.g2_15{
fill: #594DB3;
}
.g3_15{
fill: none;
stroke: #002060;
stroke-width: 4.583;
stroke-linecap: butt;
stroke-linejoin: round;
}
]]></style>
</defs>
<g clip-path="url(#c0_15)" opacity="0.4">
<path fill-rule="evenodd" d="M112.1,452.1c0,-1.6,.3,-3.1,1.2,-4.5c.7,-1.3,1.9,-2.4,3.3,-3.2c1.3,-.8,2.9,-1.2,4.4,-1.2H820.6c1.6,0,3.1,.4,4.5,1.2c1.4,.8,2.4,1.9,3.3,3.3c.7,1.4,1.1,2.9,1.1,4.4l.1,35.9c0,1.6,-.4,3.1,-1.2,4.5c-.8,1.4,-1.9,2.4,-3.3,3.3c-1.4,.7,-2.9,1.1,-4.5,1.1L121,497c-1.6,0,-3.1,-.4,-4.5,-1.2c-1.4,-.8,-2.5,-1.9,-3.3,-3.3c-.8,-1.4,-1.1,-2.9,-1.1,-4.5V452.1Z" class="g0_15"/>
<path d="M112.1,452.1v0c0,-1.6,.3,-3.1,1.2,-4.5c.7,-1.3,1.9,-2.4,3.3,-3.2c1.3,-.8,2.9,-1.2,4.4,-1.2H820.6c1.6,0,3.1,.4,4.5,1.2c1.4,.8,2.4,1.9,3.3,3.3c.7,1.4,1.1,2.9,1.1,4.4l.1,35.9c0,1.6,-.4,3.1,-1.2,4.5c-.8,1.4,-1.9,2.4,-3.3,3.3c-1.4,.7,-2.9,1.1,-4.5,1.1L121,497c-1.6,0,-3.1,-.4,-4.5,-1.2c-1.4,-.8,-2.5,-1.9,-3.3,-3.3c-.8,-1.4,-1.1,-2.9,-1.1,-4.5V452.1Z" class="g1_15"/>
</g>
<path fill-rule="evenodd" d="M106.7,446.8c0,-1.6,.4,-3.1,1.2,-4.5c.8,-1.4,1.9,-2.5,3.3,-3.3c1.4,-.8,2.9,-1.1,4.5,-1.1H815.2c1.6,0,3.2,.3,4.5,1.2c1.4,.7,2.5,1.9,3.3,3.3c.8,1.3,1.2,2.9,1.2,4.4v35.8c0,1.6,-.3,3.2,-1.2,4.5c-.7,1.4,-1.9,2.5,-3.3,3.3c-1.3,.8,-2.9,1.2,-4.4,1.2H115.7c-1.7,0,-3.2,-.3,-4.6,-1.2c-1.3,-.7,-2.4,-1.9,-3.2,-3.3c-.8,-1.3,-1.2,-2.9,-1.2,-4.4V446.8Z" class="g2_15"/>
<path d="M106.7,446.8v0c0,-1.6,.4,-3.1,1.2,-4.5c.8,-1.4,1.9,-2.5,3.3,-3.3c1.4,-.8,2.9,-1.1,4.5,-1.1H815.2c1.6,0,3.2,.3,4.5,1.2c1.4,.7,2.5,1.9,3.3,3.3c.8,1.3,1.2,2.9,1.2,4.4v35.8c0,1.6,-.3,3.2,-1.2,4.5c-.7,1.4,-1.9,2.5,-3.3,3.3c-1.3,.8,-2.9,1.2,-4.4,1.2H115.7c-1.7,0,-3.2,-.3,-4.6,-1.2c-1.3,-.7,-2.4,-1.9,-3.2,-3.3c-.8,-1.3,-1.2,-2.9,-1.2,-4.4V446.8Z" class="g3_15"/>
</svg>