<?xml version="1.0" encoding="UTF-8" standalone="no"?>
<!DOCTYPE svg PUBLIC "-//W3C//DTD SVG 1.1//EN"
"http://www.w3.org/Graphics/SVG/1.1/DTD/svg11.dtd">
<svg viewBox="0 0 935 1210" version="1.1" xmlns="http://www.w3.org/2000/svg" xmlns:xlink="http://www.w3.org/1999/xlink">
<defs>
<style type="text/css"><![CDATA[
.g0_2{
fill: none;
stroke: #0000FF;
stroke-width: 1.222;
stroke-linecap: butt;
stroke-linejoin: miter;
}
.g1_2{
fill: none;
stroke: #4A7EBB;
stroke-width: 1.145;
stroke-linecap: butt;
stroke-linejoin: round;
}
]]></style>
</defs>
<path d="M816,144.7h9.3M816,170.3h9.3M816,196h9.3M816,262.6h9.3M816,285.1h9.3M816,307.4h9.3m-18.6,22.4h18.6m-18.6,22.4h18.6m-18.6,42.9h18.6m-18.6,63.4h18.6m-18.6,22.3h18.6m-18.6,22.5h18.6m-18.6,22.3h18.6M806.7,548h18.6m-18.6,22.3h18.6m-18.6,63.4h18.6M806.7,656h18.6m-18.6,22.5h18.6m-18.6,22.3h18.6m-18.6,22.5h18.6m-18.6,63.2h18.6M806.7,809h18.6m-18.6,22.3h18.6m-18.6,22.4h18.6M806.7,876h18.6m-18.6,22.5h18.6m-18.6,63.2h18.6m-18.6,22.5h18.6m-18.6,22.3h18.6M806.7,1029h18.6m-18.6,22.3h18.6m-18.6,22.4h18.6M806.7,1096h18.6" class="g0_2"/>
<path d="M108.9,104.8l729.9,.1m-729.9,1053H826.4" class="g1_2"/>
</svg>